<?xml version="1.0" encoding="UTF-8" standalone="no"?>
<!-- Created with Inkscape (http://www.inkscape.org/) -->

<svg
   width="80.657829mm"
   height="92.973mm"
   viewBox="0 0 80.657829 92.973001"
   version="1.1"
   id="svg12967"
   inkscape:version="1.2.2 (b0a8486541, 2022-12-01)"
   sodipodi:docname="HMMERutils_logo.svg"
   xmlns:inkscape="http://www.inkscape.org/namespaces/inkscape"
   xmlns:sodipodi="http://sodipodi.sourceforge.net/DTD/sodipodi-0.dtd"
   xmlns="http://www.w3.org/2000/svg"
   xmlns:svg="http://www.w3.org/2000/svg">
  <sodipodi:namedview
     id="namedview12969"
     pagecolor="#505050"
     bordercolor="#eeeeee"
     borderopacity="1"
     inkscape:showpageshadow="0"
     inkscape:pageopacity="0"
     inkscape:pagecheckerboard="0"
     inkscape:deskcolor="#505050"
     inkscape:document-units="mm"
     showgrid="false"
     inkscape:zoom="1.6549252"
     inkscape:cx="209.07289"
     inkscape:cy="244.42192"
     inkscape:window-width="1440"
     inkscape:window-height="836"
     inkscape:window-x="0"
     inkscape:window-y="0"
     inkscape:window-maximized="1"
     inkscape:current-layer="g13227" />
  <defs
     id="defs12964" />
  <g
     inkscape:label="Layer 1"
     inkscape:groupmode="layer"
     id="layer1"
     transform="translate(-39.403059,-10.668042)">
    <g
       id="g13227"
       transform="matrix(0.61579988,0,0,0.61579988,1.146846,-34.280441)">
      <g
         id="g7300"
         transform="matrix(2.5151215,0,0,2.5109137,-890.07638,-65.332614)">
        <path
           d="m 429.879,99.733 -25.25,14.575 -25.25,-14.575 V 70.579 L 404.629,56 l 25.25,14.579 z"
           style="fill:#89aec5;fill-opacity:1;fill-rule:nonzero;stroke:#073fb7;stroke-width:1.57724;stroke-linecap:butt;stroke-linejoin:miter;stroke-miterlimit:4;stroke-dasharray:none;stroke-opacity:1"
           id="path7302" />
      </g>
      <path
         d="m 191.12155,185.08797 -63.50682,36.59754 -63.506811,-36.59754 v -73.20261 l 63.506811,-36.60759 63.50682,36.60759 z"
         style="fill:#009dcc;fill-opacity:0.208861;fill-rule:nonzero;stroke:none;stroke-width:2.51512"
         id="path7304" />
      <g
         id="g7306"
         transform="matrix(2.5151215,0,0,2.5109137,-890.07638,-65.332614)">
        <path
           d="m 429.879,99.733 -25.25,14.575 -25.25,-14.575 V 70.579 L 404.629,56 l 25.25,14.579 z"
           style="fill:none;stroke:#005067;stroke-width:1.57724;stroke-linecap:butt;stroke-linejoin:miter;stroke-miterlimit:4;stroke-dasharray:none;stroke-opacity:1"
           id="path7308" />
      </g>
      <g
         id="g7310"
         transform="matrix(2.5151215,0.03244127,-0.03244127,2.5151215,-890.07638,-65.332614)">
        <path
           d="m 397.269,89.286 c -0.001,2.371 -1.972,4.287 -4.406,4.287 -2.433,0 -4.407,-1.919 -4.407,-4.287 10e-4,-2.367 1.972,-4.287 4.406,-4.287 2.434,0 4.408,1.92 4.407,4.287 z"
           style="fill:#991915;fill-opacity:1;fill-rule:nonzero;stroke:#ffffff;stroke-width:0.398493;stroke-linecap:butt;stroke-linejoin:miter;stroke-miterlimit:4;stroke-dasharray:none;stroke-opacity:1"
           id="path7312" />
      </g>
      <g
         id="g7314"
         transform="matrix(2.5151215,0.03244127,-0.03244127,2.5151215,-890.07638,-65.332614)">
        <path
           d="m 413.555,61.22 h 8.532 l -10e-4,8.453 -8.531,0.001 z"
           style="fill:#ccb20f;fill-opacity:1;fill-rule:nonzero;stroke:#ffffff;stroke-width:0.398493;stroke-linecap:butt;stroke-linejoin:miter;stroke-miterlimit:4;stroke-dasharray:none;stroke-opacity:1"
           id="path7316" />
      </g>
      <g
         id="g7318"
         transform="matrix(2.5151215,0.03244127,-0.03244127,2.5151215,-890.07638,-65.332614)">
        <path
           d="m 397.906,90.801 c 14.023,0.921 23.389,-1.29 19.884,-18.952"
           style="fill:none;stroke:#24697d;stroke-width:0.971146;stroke-linecap:butt;stroke-linejoin:miter;stroke-miterlimit:4;stroke-dasharray:none;stroke-opacity:1"
           id="path7320" />
      </g>
      <g
         id="g7322"
         transform="matrix(0.46547602,2.5151215,-2.5151215,0.46547602,-890.07638,-65.332614)">
        <path
           d="m 154.273,-386.925 -6.262,-2.304 6.259,-2.302 c -0.999,1.362 -0.995,3.222 0.003,4.606 z"
           style="fill:#24697d;fill-opacity:1;fill-rule:evenodd;stroke:#24697d;stroke-width:0.358129;stroke-linecap:butt;stroke-linejoin:round;stroke-miterlimit:4;stroke-dasharray:none;stroke-opacity:1"
           id="path7324" />
      </g>
      <g
         id="g7326"
         transform="matrix(2.5151215,0.03244127,-0.03244127,2.5151215,-890.07638,-65.332614)">
        <path
           d="m 386.318,82.826 c -0.164,-0.037 -0.376,-0.136 -0.53,-0.24 -0.063,-0.042 -0.388,-0.358 -0.724,-0.705 -1.144,-1.169 -1.148,-1.177 -1.248,-1.379 -0.165,-0.333 -0.193,-0.724 -0.077,-1.088 0.075,-0.244 0.186,-0.417 0.421,-0.658 0.112,-0.115 1.863,-1.833 3.892,-3.82 5.243,-5.126 5.571,-5.447 7.23,-7.074 0.273,-0.269 0.837,-0.819 1.249,-1.227 l 0.756,-0.736 0.226,0.231 c 0.265,0.274 0.681,0.699 1.738,1.783 0.428,0.44 0.78,0.806 0.784,0.822 0.004,0.019 -11.465,12.718 -12.259,13.572 -0.366,0.391 -0.637,0.528 -1.082,0.541 -0.157,0.006 -0.286,-0.004 -0.376,-0.022 z m 19.499,-11.607 c -0.145,-0.037 -0.314,-0.117 -0.436,-0.213 -0.134,-0.104 -0.638,-0.648 -0.741,-0.799 -0.12,-0.175 -0.201,-0.424 -0.199,-0.607 -0.002,-0.164 0.035,-0.266 0.135,-0.377 0.104,-0.115 0.131,-0.209 0.116,-0.419 -0.016,-0.313 -0.188,-0.635 -0.528,-0.99 -0.456,-0.47 -0.908,-0.742 -1.421,-0.849 -0.259,-0.055 -0.661,-0.034 -0.859,0.043 -0.206,0.08 -0.314,0.168 -0.773,0.631 l -0.405,0.407 -0.348,-0.347 c -0.194,-0.189 -0.701,-0.69 -1.128,-1.11 -0.427,-0.42 -0.906,-0.891 -1.064,-1.045 -0.155,-0.154 -0.285,-0.289 -0.285,-0.301 -10e-4,-0.012 0.119,-0.138 0.262,-0.281 0.578,-0.574 0.82,-0.893 0.879,-1.156 0.03,-0.121 0.03,-0.414 0.001,-0.539 -0.087,-0.401 -0.31,-0.714 -0.807,-1.13 -0.952,-0.804 -2.096,-1.383 -3.441,-1.737 -0.564,-0.149 -1.316,-0.268 -1.855,-0.296 l -0.278,-0.016 -0.014,-0.172 c -0.005,-0.097 -0.015,-0.297 -0.021,-0.441 l -0.015,-0.261 0.082,-0.021 c 1.498,-0.402 3.304,-0.605 4.637,-0.521 2.014,0.13 3.6,0.723 4.982,1.866 0.311,0.253 3.01,2.937 3.086,3.065 0.096,0.159 0.138,0.393 0.172,0.928 0.059,0.917 0.141,1.244 0.392,1.581 0.23,0.301 0.781,0.587 1.14,0.586 0.074,0 0.121,-0.013 0.167,-0.052 0.17,-0.128 0.498,-0.179 0.741,-0.112 0.274,0.071 0.377,0.16 0.932,0.777 0.214,0.24 0.299,0.477 0.28,0.802 -0.013,0.23 -0.077,0.411 -0.215,0.596 -0.05,0.063 -0.578,0.613 -1.176,1.218 -0.775,0.784 -1.114,1.116 -1.204,1.172 -0.228,0.136 -0.528,0.183 -0.791,0.12 z"
           style="fill:#005067;fill-opacity:1;fill-rule:nonzero;stroke:#ffffff;stroke-width:0.152714;stroke-linecap:butt;stroke-linejoin:miter;stroke-miterlimit:4;stroke-dasharray:none;stroke-opacity:1"
           id="path7328" />
      </g>
      <path
         d="m 88.894442,183.83042 h 2.004546 v 4.32349 h 4.63789 v -4.32349 h 1.964306 v 11.12186 h -1.964306 v -5.03024 h -4.63789 v 5.03024 h -2.004546 z"
         style="fill:#ffffff;fill-opacity:1;fill-rule:nonzero;stroke:none;stroke-width:2.51512"
         id="path7330" />
      <path
         d="m 99.958459,183.83042 h 2.593091 l 2.51512,6.68267 2.51512,-6.68267 h 2.63334 v 11.12186 h -1.96432 v -8.05593 l -2.28121,6.05138 h -1.80586 l -2.28121,-6.05138 v 8.05593 h -1.924071 z"
         style="fill:#ffffff;fill-opacity:1;fill-rule:nonzero;stroke:none;stroke-width:2.51512"
         id="path7332" />
      <path
         d="m 113.22069,183.83042 h 2.59561 l 2.51512,6.68267 2.51512,-6.68267 h 2.63082 v 11.12186 h -1.96431 v -8.05593 l -2.2787,6.05138 h -1.80837 l -2.2787,-6.05138 v 8.05593 h -1.92659 z"
         style="fill:#ffffff;fill-opacity:1;fill-rule:nonzero;stroke:none;stroke-width:2.51512"
         id="path7334" />
      <path
         d="m 126.4955,183.83042 h 7.23098 v 1.77064 h -5.22894 v 2.55285 h 5.03025 v 1.76813 h -5.03025 v 3.30236 h 5.38488 v 1.72788 h -7.38692 z"
         style="fill:#ffffff;fill-opacity:1;fill-rule:nonzero;stroke:none;stroke-width:2.51512"
         id="path7336" />
      <path
         d="m 141.30957,189.7661 c 0.0506,-0.078 0.23641,0.0677 0.55082,0.43262 0.31441,0.37223 0.62875,0.86269 0.94317,1.49146 l 1.64992,3.26212 h -2.12276 l -1.45375,-2.86724 c -0.31441,-0.64893 -0.61869,-1.07144 -0.90292,-1.25756 -0.29424,-0.20626 -0.6967,-0.31441 -1.21732,-0.31441 h -1.25756 v 4.43919 h -2.00455 v -11.12187 h 3.49602 c 1.27768,0 2.25103,0.2968 2.90999,0.8652 0.64636,0.55082 0.9809,1.37577 0.9809,2.47739 0,0.70675 -0.18615,1.31541 -0.55083,1.80586 -0.34207,0.50049 -0.68664,0.76711 -1.02114,0.78723 z m -3.81041,-4.20528 v 3.18414 h 1.49147 c 0.62882,0 1.0815,-0.12826 1.37577,-0.3949 0.31441,-0.25402 0.47283,-0.64893 0.47283,-1.17708 0,-0.55082 -0.15849,-0.95323 -0.47283,-1.21983 -0.2943,-0.25402 -0.74699,-0.39234 -1.37577,-0.39234 z"
         style="fill:#ffffff;fill-opacity:1;fill-rule:nonzero;stroke:none;stroke-width:2.51512"
         id="path7338" />
      <path
         d="m 144.64965,191.57447 v -5.11072 h 1.88634 v 5.03024 c 0,0.70924 0.11821,1.21984 0.35462,1.53423 0.23641,0.31441 0.59859,0.47033 1.09911,0.47033 0.62875,0 1.11169,-0.19621 1.45625,-0.58854 0.36218,-0.41244 0.54833,-0.96329 0.54833,-1.64992 v -4.79633 h 1.84862 v 8.48853 h -1.84862 l 0.0399,-0.62875 c -0.03,0.0606 -0.27413,0.21631 -0.74699,0.47283 -0.45273,0.26407 -0.97336,0.39233 -1.57196,0.39233 -1.00101,0 -1.75806,-0.31441 -2.27869,-0.94317 -0.53072,-0.64892 -0.78724,-1.54176 -0.78724,-2.67106 z"
         style="fill:#ffffff;fill-opacity:1;fill-rule:nonzero;stroke:none;stroke-width:2.51512"
         id="path7340" />
      <path
         d="m 154.41587,184.22529 v 2.23846 h 2.67357 v 1.57195 h -2.67357 v 4.04934 c 0,0.54833 0.0506,0.89287 0.15849,1.02114 0.12576,0.13832 0.43261,0.19621 0.90292,0.19621 h 1.6122 v 1.64991 h -1.6122 c -1.0991,0 -1.87628,-0.20625 -2.31894,-0.62874 -0.42256,-0.41252 -0.62875,-1.15947 -0.62875,-2.23846 v -4.04934 h -0.94317 v -1.57195 h 0.94317 v -2.23846 z"
         style="fill:#ffffff;fill-opacity:1;fill-rule:nonzero;stroke:none;stroke-width:2.51512"
         id="path7342" />
      <path
         d="m 156.82284,186.46375 h 1.84861 v 8.48853 h -1.84861 z m 0,-3.06342 h 1.84861 v 2.20073 h -1.84861 z"
         style="fill:#ffffff;fill-opacity:1;fill-rule:nonzero;stroke:none;stroke-width:2.51512"
         id="path7344" />
      <path
         d="m 159.88878,183.40033 h 1.8461 v 11.55447 h -1.8461 z"
         style="fill:#ffffff;fill-opacity:1;fill-rule:nonzero;stroke:none;stroke-width:2.51512"
         id="path7346" />
      <path
         d="m 168.58355,186.81838 v 1.88634 c -0.62875,-0.33451 -1.13935,-0.55082 -1.53171,-0.62875 -0.37472,-0.0981 -0.74699,-0.15841 -1.14186,-0.15841 -0.60865,0 -1.04126,0.0805 -1.29529,0.23641 -0.26657,0.15842 -0.39234,0.38485 -0.39234,0.66903 0,0.21631 0.088,0.38228 0.27413,0.51054 0.17603,0.13831 0.60864,0.27413 1.2978,0.43262 l 0.43012,0.11821 c 0.96329,0.2163 1.6625,0.53071 2.08504,0.94316 0.44017,0.39234 0.66653,0.94317 0.66653,1.64993 0,0.8149 -0.33451,1.47385 -0.9809,1.9643 -0.62875,0.50049 -1.48391,0.74699 -2.55536,0.74699 -0.45272,0 -0.90293,-0.0399 -1.37577,-0.1182 -0.47033,-0.0981 -1.04126,-0.25403 -1.69016,-0.47033 v -1.96683 c 0.72687,0.34457 1.31792,0.58098 1.76813,0.70924 0.44267,0.13582 0.88532,0.19621 1.33805,0.19621 0.54832,0 0.95071,-0.078 1.21731,-0.23642 0.25652,-0.17602 0.39234,-0.41251 0.39234,-0.70674 0,-0.25652 -0.0981,-0.45272 -0.27413,-0.59104 -0.18615,-0.15592 -0.66903,-0.31441 -1.45374,-0.47033 l -0.43262,-0.1182 c -0.84508,-0.20626 -1.47386,-0.49044 -1.88634,-0.8652 -0.39234,-0.39234 -0.59103,-0.94318 -0.59103,-1.64992 0,-0.80484 0.28674,-1.43363 0.8652,-1.88635 0.59859,-0.47033 1.41602,-0.70674 2.43715,-0.70674 0.49044,0 0.96329,0.0378 1.4135,0.1182 0.44267,0.0577 0.91551,0.18616 1.41601,0.39234 z"
         style="fill:#ffffff;fill-opacity:1;fill-rule:nonzero;stroke:none;stroke-width:2.51512"
         id="path7348" />
    </g>
  </g>
</svg>
